#!OML:ASF H:\Not Pregnant\Project 1\Capture day 1\Session 1\non-pregnant.ASF
:FULLY-SPECIFIED
:DEGREES
709
root 5.97208 16.1718 -8.12621 -165.333 -184.936 -180.408
lowerback 0.749335 -2.32891 -3.44783
upperback -6.39519 -3.29683 -0.163735
thorax -6.90277 -1.44057 1.97139
lowerneck 15.2583 -11.2791 -29.9441
upperneck -2.56255 -21.1471 40.0431
head 5.23833 -12.3448 18.9497
rclavicle -1.01256e-014 0
rhumerus -47.7368 -22.9628 -65.9176
rradius 20.5151
rwrist 34.5299
rhand -7.89611 -7.70163
rfingers 7.12502
rthumb -161.991 143.112
lclavicle -1.01256e-014 0
lhumerus -37.2993 -5.7639 81.751
lradius 48.0473
lwrist 41.5783
lhand -17.917 -12.1035
lfingers 7.12502
lthumb 8.35044 17.7115
rfemur -45.1724 4.40394 21.1986
rtibia 34.8095
rfoot -7.26773 14.628
rtoes -18.9808
lfemur -7.01234 -4.73857 -21.4158
ltibia 31.2337
lfoot -17.7239 -12.192
ltoes -32.4045
710
root 5.96801 16.1627 -7.97924 -165.551 -185.029 -180.473
lowerback 0.56062 -2.33216 -3.22653
upperback -6.38099 -3.28295 -0.169967
thorax -6.79001 -1.44933 1.83153
lowerneck 15.2908 -11.2535 -30.024
upperneck -2.36934 -21.1604 39.8387
head 5.26165 -12.3368 18.8602
rclavicle -4.96962e-017 -4.37326e-015
rhumerus -48.4054 -23.1221 -65.2525
rradius 20.3378
rwrist 34.8349
rhand -7.76074 -7.89754
rfingers 7.12502
rthumb -161.861 142.928
lclavicle -4.96962e-017 -4.37326e-015
lhumerus -37.703 -5.79984 81.8672
lradius 48.4559
lwrist 41.3242
lhand -17.5769 -12.1937
lfingers 7.12502
lthumb 8.67865 17.6079
rfemur -44.7274 4.98256 21.1902
rtibia 35.5209
rfoot -7.49529 13.974
rtoes -17.5236
lfemur -6.63218 -4.79529 -21.2663
ltibia 31.8098
lfoot -16.9075 -12.9232
ltoes -32.4771
711
root 5.96391 16.1532 -7.83347 -165.796 -185.127 -180.555
lowerback 0.424245 -2.33633 -2.99215
upperback -6.36207 -3.27251 -0.172208
thorax -6.70291 -1.45958 1.69125
lowerneck 15.2874 -11.221 -30.1085
upperneck -2.1725 -21.161 39.6693
head 5.29534 -12.322 18.7919
rclavicle -1.49089e-014 -7.95139e-016
rhumerus -48.9984 -23.1745 -64.7116
rradius 20.1921
rwrist 35.049
rhand -7.55535 -8.0604
rfingers 7.12502
rthumb -161.663 142.784
lclavicle -1.49089e-014 -7.95139e-016
lhumerus -38.1237 -5.76903 81.9746
lradius 48.8091
lwrist 41.0151
lhand -17.2665 -12.3399
lfingers 7.12502
lthumb 8.9782 17.4491
rfemur -44.2741 5.62091 21.1724
rtibia 36.2551
rfoot -7.8665 13.1946
rtoes -16.7243
lfemur -6.3468 -4.83484 -21.0948
ltibia 32.5658
lfoot -15.971 -13.7182
ltoes -32.4655
712
root 5.96076 16.1431 -7.68871 -166.074 -185.208 -180.664
lowerback 0.340639 -2.33477 -2.72628
upperback -6.33735 -3.25561 -0.172423
thorax -6.64196 -1.46759 1.53765
lowerneck 15.2813 -11.1857 -30.1853
upperneck -1.9802 -21.1559 39.5182
head 5.32874 -12.3059 18.7339
rclavicle 2.7395e-014 4.77083e-015
rhumerus -49.5282 -23.1885 -64.2356
rradius 20.0325
rwrist 35.3006
rhand -7.34179 -8.12283
rfingers 7.12502
rthumb -161.458 142.741
lclavicle 2.7395e-014 4.77083e-015
lhumerus -38.5661 -5.66751 82.0639
lradius 49.1154
lwrist 40.6739
lhand -16.9734 -12.5126
lfingers 7.12502
lthumb 9.26105 17.264
rfemur -43.7829 6.2862 21.1805
rtibia 36.9691
rfoot -8.27662 12.4301
rtoes -16.1899
lfemur -6.15294 -4.81301 -20.8963
ltibia 33.5153
lfoot -14.8938 -14.5721
ltoes -32.3262
713
root 5.95893 16.1329 -7.5452 -166.374 -185.268 -180.819
lowerback 0.295266 -2.32854 -2.406
upperback -6.31697 -3.23189 -0.165151
thorax -6.6104 -1.47424 1.36322
lowerneck 15.2828 -11.1449 -30.2288
upperneck -1.79539 -21.1334 39.3561
head 5.34486 -12.2811 18.6684
rclavicle 5.97162e-014 -5.96354e-015
rhumerus -50.0111 -23.1654 -63.8099
rradius 19.852
rwrist 35.6407
rhand -7.16251 -8.05768
rfingers 7.12502
rthumb -161.285 142.823
lclavicle 5.97162e-014 -5.96354e-015
lhumerus -39.0485 -5.49342 82.1347
lradius 49.369
lwrist 40.3204
lhand -16.7048 -12.7091
lfingers 7.12502
lthumb 9.52015 17.0558
rfemur -43.2415 6.93918 21.2586
rtibia 37.6266
rfoot -8.72252 11.7625
rtoes -15.8106
lfemur -6.07008 -4.70426 -20.6475
ltibia 34.663
lfoot -13.5878 -15.5199
ltoes -31.7327
714
root 5.95889 16.1228 -7.40311 -166.683 -185.304 -181.024
lowerback 0.261706 -2.31438 -2.02108
upperback -6.29312 -3.19544 -0.152875
thorax -6.5854 -1.47779 1.15785
lowerneck 15.2746 -11.1012 -30.2691
upperneck -1.60564 -21.1065 39.2082
head 5.36503 -12.2545 18.6111
rclavicle 5.17772e-015 7.95139e-016
rhumerus -50.4298 -23.0896 -63.4713
rradius 19.6774
rwrist 36.0158
rhand -7.00901 -7.88515
rfingers 7.12502
rthumb -161.138 143.009
lclavicle 5.17772e-015 7.95139e-016
lhumerus -39.5463 -5.24914 82.1765
lradius 49.5694
lwrist 39.9833
lhand -16.4345 -12.9349
lfingers 7.12502
lthumb 9.78095 16.8179
rfemur -42.6472 7.53625 21.431
rtibia 38.2043
rfoot -9.24148 11.1899
rtoes -15.6532
lfemur -6.10562 -4.48008 -20.3416
ltibia 35.9986
lfoot -12.0048 -16.5249
ltoes -30.801
715
root 5.96062 16.1133 -7.26281 -166.977 -185.312 -181.283
lowerback 0.226239 -2.29382 -1.56994
upperback -6.2743 -3.14772 -0.129128
thorax -6.56762 -1.4788 0.926996
lowerneck 15.2669 -11.0505 -30.3273
upperneck -1.42184 -21.0764 39.0951
head 5.3915 -12.2294 18.5781
rclavicle -3.22062e-014 1.59028e-014
rhumerus -50.7853 -22.969 -63.2146
rradius 19.5398
rwrist 36.3881
rhand -6.81559 -7.64671
rfingers 7.12502
rthumb -160.952 143.266
lclavicle -3.22062e-014 1.59028e-014
lhumerus -40.0615 -4.94236 82.1928
lradius 49.7213
lwrist 39.7002
lhand -16.1891 -13.1441
lfingers 7.12502
lthumb 10.0177 16.5975
rfemur -42.0278 8.04221 21.7153
rtibia 38.6924
rfoot -9.77851 10.7404
rtoes -15.5516
lfemur -6.2867 -4.1219 -19.9636
ltibia 37.5123
lfoot -10.0394 -17.5532
ltoes -29.3899
716
root 5.96413 16.1042 -7.12426 -167.245 -185.296 -181.585
lowerback 0.177319 -2.2672 -1.06455
upperback -6.25769 -3.08956 -0.0951556
thorax -6.54671 -1.47722 0.675442
lowerneck 15.2464 -11.0003 -30.4117
upperneck -1.24327 -21.0532 39.0178
head 5.4325 -12.21 18.5674
rclavicle 2.73414e-014 1.15295e-014
rhumerus -51.0716 -22.8034 -63.0465
rradius 19.4397
rwrist 36.7385
rhand -6.62424 -7.35006
rfingers 7.12502
rthumb -160.768 143.581
lclavicle 2.73414e-014 1.15295e-014
lhumerus -40.5762 -4.57996 82.1906
lradius 49.8141
lwrist 39.4881
lhand -15.981 -13.3387
lfingers 7.12502
lthumb 10.2185 16.3931
rfemur -41.3939 8.43163 22.1007
rtibia 39.0941
rfoot -10.3267 10.4113
rtoes -15.4696
lfemur -6.61299 -3.64088 -19.5214
ltibia 39.1786
lfoot -7.61371 -18.5253
ltoes -27.4471
717
root 5.96905 16.0955 -6.98782 -167.47 -185.258 -181.917
lowerback 0.104266 -2.23497 -0.526971
upperback -6.2502 -3.02266 -0.0509844
thorax -6.52255 -1.47264 0.415222
lowerneck 15.2191 -10.9515 -30.5228
upperneck -1.06999 -21.0391 38.9712
head 5.48664 -12.1971 18.5761
rclavicle -1.90554e-014 -4.37326e-015
rhumerus -51.2804 -22.5396 -63.0224
rradius 19.4271
rwrist 36.9122
rhand -6.34882 -7.08617
rfingers 7.12502
rthumb -160.503 143.871
lclavicle -1.90554e-014 -4.37326e-015
lhumerus -41.0837 -4.17036 82.1745
lradius 49.843
lwrist 39.3735
lhand -15.8268 -13.5011
lfingers 7.12502
lthumb 10.3672 16.2233
rfemur -40.7716 8.68752 22.5678
rtibia 39.4197
rfoot -10.8844 10.2213
rtoes -15.3282
lfemur -7.09574 -3.05341 -19.026
ltibia 40.9669
lfoot -4.70147 -19.3285
ltoes -24.9648
718
root 5.97526 16.0874 -6.85333 -167.651 -185.207 -182.255
lowerback -0.00248749 -2.19994 0.0206329
upperback -6.24644 -2.95215 0.000510439
thorax -6.48272 -1.46653 0.155457
lowerneck 15.1797 -10.9043 -30.6562
upperneck -0.905806 -21.0292 38.9461
head 5.54953 -12.1874 18.5986
rclavicle -1.09953e-014 -5.96354e-015
rhumerus -51.4088 -22.1523 -63.1675
rradius 19.5118
rwrist 36.87
rhand -6.0431 -6.86069
rfingers 7.12502
rthumb -160.209 144.127
lclavicle -1.09953e-014 -5.96354e-015
lhumerus -41.5777 -3.71084 82.1496
lradius 49.8058
lwrist 39.3702
lhand -15.7166 -13.6346
lfingers 7.12502
lthumb 10.4735 16.0845
rfemur -40.1651 8.81146 23.0828
rtibia 39.6786
rfoot -11.4459 10.1539
rtoes -15.1046
lfemur -7.72378 -2.4083 -18.5027
ltibia 42.8298
lfoot -1.30174 -19.846
ltoes -21.7957
719
root 5.98241 16.0802 -6.72081 -167.799 -185.146 -182.585
lowerback -0.126501 -2.15739 0.554211
upperback -6.24368 -2.8734 0.0542628
thorax -6.4327 -1.45528 -0.0952651
lowerneck 15.1338 -10.8675 -30.7671
upperneck -0.769957 -21.0191 38.9139
head 5.60119 -12.1763 18.6099
rclavicle -2.30342e-014 -2.38542e-015
rhumerus -51.4619 -21.642 -63.4826
rradius 19.6902
rwrist 36.5532
rhand -5.70542 -6.72437
rfingers 7.12502
rthumb -159.884 144.297
lclavicle -2.30342e-014 -2.38542e-015
lhumerus -42.0528 -3.22111 82.1298
lradius 49.7
lwrist 39.4556
lhand -15.6854 -13.7368
lfingers 7.12502
lthumb 10.5037 15.9808
rfemur -39.562 8.81546 23.6191
rtibia 39.8737
rfoot -12.0111 10.1884
rtoes -14.8297
lfemur -8.46857 -1.74703 -17.9763
ltibia 44.7229
lfoot 2.41049 -19.9864
ltoes -18.0156
